<svg width="33" height="29" viewBox="0 0 33 29" fill="none" xmlns="http://www.w3.org/2000/svg">
<path fill-rule="evenodd" clip-rule="evenodd" d="M10.9835 6.06597C11.3194 5.94723 11.6888 5.96678 12.0103 6.12033C12.3319 6.27387 12.5793 6.54884 12.6981 6.88477C12.9759 7.67137 13.4909 8.35247 14.1719 8.83422C14.853 9.31596 15.6667 9.57466 16.5009 9.57466C17.3352 9.57466 18.1489 9.31596 18.8299 8.83422C19.511 8.35247 20.0259 7.67137 20.3037 6.88477C20.3604 6.7157 20.4502 6.5596 20.5678 6.42558C20.6854 6.29155 20.8285 6.18228 20.9888 6.10412C21.1491 6.02597 21.3233 5.98049 21.5014 5.97035C21.6794 5.96021 21.8576 5.9856 22.0258 6.04505C22.1939 6.10449 22.3485 6.19681 22.4806 6.3166C22.6126 6.4364 22.7196 6.58129 22.7951 6.74283C22.8706 6.90436 22.9132 7.07931 22.9204 7.25748C22.9277 7.43565 22.8993 7.61348 22.8372 7.7806C22.3739 9.09092 21.5158 10.2254 20.3811 11.0278C19.2463 11.8302 17.8907 12.2611 16.5009 12.2611C15.1111 12.2611 13.7555 11.8302 12.6208 11.0278C11.486 10.2254 10.6279 9.09092 10.1647 7.7806C10.0459 7.44464 10.0655 7.07528 10.219 6.75374C10.3726 6.4322 10.6476 6.18481 10.9835 6.06597ZM17.1468 2.85352H15.8532C12.9418 2.85352 11.0032 2.85889 9.53403 3.03985C8.14011 3.21185 7.4969 3.51106 7.0454 3.88552C6.5939 4.26177 6.18182 4.83689 5.7554 6.17527C5.30749 7.58531 4.94557 9.48985 4.40807 12.3529C3.65557 16.3663 3.15032 19.0914 3.06074 21.1446C2.97474 23.1244 3.30619 23.9665 3.77203 24.5273C4.23786 25.0881 5.0029 25.5683 6.96478 25.8478C8.99832 26.138 11.7718 26.1452 15.855 26.1452H17.145C21.23 26.1452 24.0017 26.138 26.0353 25.8478C27.9972 25.5683 28.7622 25.0881 29.228 24.5273C29.6939 23.9647 30.0253 23.1244 29.9393 21.1446C29.8497 19.0914 29.3445 16.3663 28.592 12.3529C28.0545 9.48985 27.6944 7.5871 27.2447 6.17527C26.8182 4.83689 26.4062 4.25997 25.9547 3.88552C25.5032 3.51106 24.8617 3.21185 23.466 3.03985C21.9969 2.85889 20.0583 2.85352 17.1468 2.85352ZM5.32899 1.81793C3.34024 3.46985 2.81528 6.26664 1.76715 11.8584C0.292611 19.7221 -0.445555 23.653 1.70444 26.2437C3.85444 28.8345 7.85344 28.8327 15.855 28.8327H17.145C25.1466 28.8327 29.1474 28.8327 31.2974 26.2437C33.4474 23.6548 32.7092 19.7221 31.2347 11.8566C30.1866 6.26664 29.6616 3.46985 27.6711 1.81793C25.6823 0.166016 22.8354 0.166016 17.1468 0.166016H15.8532C10.1647 0.166016 7.31953 0.166016 5.32899 1.81793Z" fill="black"/>
</svg>
