<svg width="31" height="19" viewBox="0 0 31 19" fill="none" xmlns="http://www.w3.org/2000/svg">
<g clip-path="url(#clip0_595_267)">
<path d="M19.6821 2.03418H11.293V16.9874H19.6821V2.03418Z" fill="#FF5A00"/>
<path d="M11.8515 9.51119C11.8515 6.47315 13.291 3.77677 15.5 2.0346C13.8743 0.766436 11.8236 0 9.58667 0C4.28763 0 0 4.25387 0 9.51119C0 14.7685 4.28763 19.0224 9.58667 19.0224C11.8236 19.0224 13.8743 18.256 15.5 16.9878C13.2879 15.2702 11.8515 12.5492 11.8515 9.51119Z" fill="#EB001B"/>
<path d="M31 9.51119C31 14.7685 26.7124 19.0224 21.4133 19.0224C19.1764 19.0224 17.1257 18.256 15.5 16.9878C17.7369 15.2425 19.1485 12.5492 19.1485 9.51119C19.1485 6.47315 17.709 3.77677 15.5 2.0346C17.1226 0.766436 19.1733 0 21.4102 0C26.7124 0 31 4.28158 31 9.51119Z" fill="#F79E1B"/>
</g>
<defs>
<clipPath id="clip0_595_267">
<rect width="31" height="19" fill="white"/>
</clipPath>
</defs>
</svg>
