<svg width="97" height="154" viewBox="0 0 97 154" fill="none" xmlns="http://www.w3.org/2000/svg">
<path d="M48.125 9.625C53.2304 9.625 58.1267 11.6531 61.7368 15.2632C65.3469 18.8733 67.375 23.7696 67.375 28.875V67.375H28.875V28.875C28.875 23.7696 30.9031 18.8733 34.5132 15.2632C38.1233 11.6531 43.0196 9.625 48.125 9.625ZM77 67.375V28.875C77 21.2169 73.9578 13.8724 68.5427 8.45729C63.1276 3.04218 55.7831 0 48.125 0C40.4669 0 33.1224 3.04218 27.7073 8.45729C22.2922 13.8724 19.25 21.2169 19.25 28.875V67.375C14.1446 67.375 9.24827 69.4031 5.63819 73.0132C2.02812 76.6233 0 81.5196 0 86.625V134.75C0 139.855 2.02812 144.752 5.63819 148.362C9.24827 151.972 14.1446 154 19.25 154H77C82.1054 154 87.0017 151.972 90.6118 148.362C94.2219 144.752 96.25 139.855 96.25 134.75V86.625C96.25 81.5196 94.2219 76.6233 90.6118 73.0132C87.0017 69.4031 82.1054 67.375 77 67.375ZM19.25 77H77C79.5527 77 82.0009 78.0141 83.8059 79.8191C85.6109 81.6241 86.625 84.0723 86.625 86.625V134.75C86.625 137.303 85.6109 139.751 83.8059 141.556C82.0009 143.361 79.5527 144.375 77 144.375H19.25C16.6973 144.375 14.2491 143.361 12.4441 141.556C10.6391 139.751 9.625 137.303 9.625 134.75V86.625C9.625 84.0723 10.6391 81.6241 12.4441 79.8191C14.2491 78.0141 16.6973 77 19.25 77Z" fill="#323232"/>
<circle cx="48.125" cy="109" r="7" fill="#323232"/>
<rect x="46.125" y="114" width="4" height="12" fill="#323232"/>
</svg>
