<svg width="393" height="852" viewBox="0 0 393 852" fill="none" xmlns="http://www.w3.org/2000/svg">
<rect width="393" height="852" fill="#F8F8F8"/>
<circle cx="44.6484" cy="85.6484" r="24.6484" fill="#E9E9E9"/>
<rect x="34.6562" y="76.9883" width="19.9852" height="2.6647" rx="1" fill="#282828"/>
<rect x="34.6562" y="84.9824" width="19.9852" height="2.6647" rx="1" fill="#282828"/>
<rect x="34.6562" y="92.9766" width="19.9852" height="2.6647" rx="1" fill="#282828"/>
<path d="M197 331.625C202.105 331.625 207.002 333.653 210.612 337.263C214.222 340.873 216.25 345.77 216.25 350.875V389.375H177.75V350.875C177.75 345.77 179.778 340.873 183.388 337.263C186.998 333.653 191.895 331.625 197 331.625ZM225.875 389.375V350.875C225.875 343.217 222.833 335.872 217.418 330.457C212.003 325.042 204.658 322 197 322C189.342 322 181.997 325.042 176.582 330.457C171.167 335.872 168.125 343.217 168.125 350.875V389.375C163.02 389.375 158.123 391.403 154.513 395.013C150.903 398.623 148.875 403.52 148.875 408.625V456.75C148.875 461.855 150.903 466.752 154.513 470.362C158.123 473.972 163.02 476 168.125 476H225.875C230.98 476 235.877 473.972 239.487 470.362C243.097 466.752 245.125 461.855 245.125 456.75V408.625C245.125 403.52 243.097 398.623 239.487 395.013C235.877 391.403 230.98 389.375 225.875 389.375ZM168.125 399H225.875C228.428 399 230.876 400.014 232.681 401.819C234.486 403.624 235.5 406.072 235.5 408.625V456.75C235.5 459.303 234.486 461.751 232.681 463.556C230.876 465.361 228.428 466.375 225.875 466.375H168.125C165.572 466.375 163.124 465.361 161.319 463.556C159.514 461.751 158.5 459.303 158.5 456.75V408.625C158.5 406.072 159.514 403.624 161.319 401.819C163.124 400.014 165.572 399 168.125 399Z" fill="#323232"/>
<circle cx="197" cy="431" r="7" fill="#323232"/>
<rect x="195" y="436" width="4" height="12" fill="#323232"/>
<path d="M106.36 509.24C105.28 509.24 104.273 509.067 103.34 508.72C102.42 508.36 101.62 507.853 100.94 507.2C100.26 506.547 99.7267 505.78 99.34 504.9C98.9667 504.02 98.78 503.053 98.78 502C98.78 500.947 98.9667 499.98 99.34 499.1C99.7267 498.22 100.26 497.453 100.94 496.8C101.633 496.147 102.44 495.647 103.36 495.3C104.28 494.94 105.287 494.76 106.38 494.76C107.593 494.76 108.687 494.973 109.66 495.4C110.647 495.813 111.473 496.427 112.14 497.24L110.06 499.16C109.58 498.613 109.047 498.207 108.46 497.94C107.873 497.66 107.233 497.52 106.54 497.52C105.887 497.52 105.287 497.627 104.74 497.84C104.193 498.053 103.72 498.36 103.32 498.76C102.92 499.16 102.607 499.633 102.38 500.18C102.167 500.727 102.06 501.333 102.06 502C102.06 502.667 102.167 503.273 102.38 503.82C102.607 504.367 102.92 504.84 103.32 505.24C103.72 505.64 104.193 505.947 104.74 506.16C105.287 506.373 105.887 506.48 106.54 506.48C107.233 506.48 107.873 506.347 108.46 506.08C109.047 505.8 109.58 505.38 110.06 504.82L112.14 506.74C111.473 507.553 110.647 508.173 109.66 508.6C108.687 509.027 107.587 509.24 106.36 509.24ZM114.012 509V498.24H117.272L121.332 505.6H120.032L124.372 498.24H127.292L127.332 509H124.512V501.44L124.992 501.76L121.292 507.96H119.972L116.252 501.54L116.832 501.4V509H114.012ZM135.58 509.16C134.354 509.16 133.274 508.92 132.34 508.44C131.42 507.96 130.707 507.307 130.2 506.48C129.694 505.64 129.44 504.687 129.44 503.62C129.44 502.54 129.687 501.587 130.18 500.76C130.687 499.92 131.374 499.267 132.24 498.8C133.107 498.32 134.087 498.08 135.18 498.08C136.234 498.08 137.18 498.307 138.02 498.76C138.874 499.2 139.547 499.84 140.04 500.68C140.534 501.507 140.78 502.5 140.78 503.66C140.78 503.78 140.774 503.92 140.76 504.08C140.747 504.227 140.734 504.367 140.72 504.5H131.98V502.68H139.08L137.88 503.22C137.88 502.66 137.767 502.173 137.54 501.76C137.314 501.347 137 501.027 136.6 500.8C136.2 500.56 135.734 500.44 135.2 500.44C134.667 500.44 134.194 500.56 133.78 500.8C133.38 501.027 133.067 501.353 132.84 501.78C132.614 502.193 132.5 502.687 132.5 503.26V503.74C132.5 504.327 132.627 504.847 132.88 505.3C133.147 505.74 133.514 506.08 133.98 506.32C134.46 506.547 135.02 506.66 135.66 506.66C136.234 506.66 136.734 506.573 137.16 506.4C137.6 506.227 138 505.967 138.36 505.62L140.02 507.42C139.527 507.98 138.907 508.413 138.16 508.72C137.414 509.013 136.554 509.16 135.58 509.16ZM143.172 509V498.24H146.272V502.44H150.952V498.24H154.072V509H150.952V504.98H146.272V509H143.172ZM163.499 509V506.9L163.299 506.44V502.68C163.299 502.013 163.092 501.493 162.679 501.12C162.279 500.747 161.659 500.56 160.819 500.56C160.245 500.56 159.679 500.653 159.119 500.84C158.572 501.013 158.105 501.253 157.719 501.56L156.599 499.38C157.185 498.967 157.892 498.647 158.719 498.42C159.545 498.193 160.385 498.08 161.239 498.08C162.879 498.08 164.152 498.467 165.059 499.24C165.965 500.013 166.419 501.22 166.419 502.86V509H163.499ZM160.219 509.16C159.379 509.16 158.659 509.02 158.059 508.74C157.459 508.447 156.999 508.053 156.679 507.56C156.359 507.067 156.199 506.513 156.199 505.9C156.199 505.26 156.352 504.7 156.659 504.22C156.979 503.74 157.479 503.367 158.159 503.1C158.839 502.82 159.725 502.68 160.819 502.68H163.679V504.5H161.159C160.425 504.5 159.919 504.62 159.639 504.86C159.372 505.1 159.239 505.4 159.239 505.76C159.239 506.16 159.392 506.48 159.699 506.72C160.019 506.947 160.452 507.06 160.999 507.06C161.519 507.06 161.985 506.94 162.399 506.7C162.812 506.447 163.112 506.08 163.299 505.6L163.779 507.04C163.552 507.733 163.139 508.26 162.539 508.62C161.939 508.98 161.165 509.16 160.219 509.16ZM174.793 509V498.24H177.893V502.44H182.573V498.24H185.693V509H182.573V504.98H177.893V509H174.793ZM193.94 509.16C192.713 509.16 191.633 508.92 190.7 508.44C189.78 507.96 189.066 507.307 188.56 506.48C188.053 505.64 187.8 504.687 187.8 503.62C187.8 502.54 188.046 501.587 188.54 500.76C189.046 499.92 189.733 499.267 190.6 498.8C191.466 498.32 192.446 498.08 193.54 498.08C194.593 498.08 195.54 498.307 196.38 498.76C197.233 499.2 197.906 499.84 198.4 500.68C198.893 501.507 199.14 502.5 199.14 503.66C199.14 503.78 199.133 503.92 199.12 504.08C199.106 504.227 199.093 504.367 199.08 504.5H190.34V502.68H197.44L196.24 503.22C196.24 502.66 196.126 502.173 195.9 501.76C195.673 501.347 195.36 501.027 194.96 500.8C194.56 500.56 194.093 500.44 193.56 500.44C193.026 500.44 192.553 500.56 192.14 500.8C191.74 501.027 191.426 501.353 191.2 501.78C190.973 502.193 190.86 502.687 190.86 503.26V503.74C190.86 504.327 190.986 504.847 191.24 505.3C191.506 505.74 191.873 506.08 192.34 506.32C192.82 506.547 193.38 506.66 194.02 506.66C194.593 506.66 195.093 506.573 195.52 506.4C195.96 506.227 196.36 505.967 196.72 505.62L198.38 507.42C197.886 507.98 197.266 508.413 196.52 508.72C195.773 509.013 194.913 509.16 193.94 509.16ZM212.235 509.16C211.089 509.16 210.069 508.92 209.175 508.44C208.295 507.96 207.595 507.307 207.075 506.48C206.569 505.64 206.315 504.687 206.315 503.62C206.315 502.54 206.569 501.587 207.075 500.76C207.595 499.92 208.295 499.267 209.175 498.8C210.069 498.32 211.089 498.08 212.235 498.08C213.369 498.08 214.382 498.32 215.275 498.8C216.169 499.267 216.869 499.913 217.375 500.74C217.882 501.567 218.135 502.527 218.135 503.62C218.135 504.687 217.882 505.64 217.375 506.48C216.869 507.307 216.169 507.96 215.275 508.44C214.382 508.92 213.369 509.16 212.235 509.16ZM212.235 506.6C212.755 506.6 213.222 506.48 213.635 506.24C214.049 506 214.375 505.66 214.615 505.22C214.855 504.767 214.975 504.233 214.975 503.62C214.975 502.993 214.855 502.46 214.615 502.02C214.375 501.58 214.049 501.24 213.635 501C213.222 500.76 212.755 500.64 212.235 500.64C211.715 500.64 211.249 500.76 210.835 501C210.422 501.24 210.089 501.58 209.835 502.02C209.595 502.46 209.475 502.993 209.475 503.62C209.475 504.233 209.595 504.767 209.835 505.22C210.089 505.66 210.422 506 210.835 506.24C211.249 506.48 211.715 506.6 212.235 506.6ZM222.191 509V500.08L222.891 500.8H218.551V498.24H228.931V500.8H224.591L225.291 500.08V509H222.191ZM238.214 509L234.614 503.9L237.154 502.4L241.894 509H238.214ZM230.594 509V498.24H233.714V509H230.594ZM232.794 504.92V502.42H236.554V504.92H232.794ZM237.454 503.98L234.534 503.66L238.314 498.24H241.634L237.454 503.98ZM249.766 509.16C248.859 509.16 248.066 508.96 247.386 508.56C246.706 508.16 246.172 507.553 245.786 506.74C245.412 505.913 245.226 504.873 245.226 503.62C245.226 502.353 245.406 501.313 245.766 500.5C246.126 499.687 246.646 499.08 247.326 498.68C248.006 498.28 248.819 498.08 249.766 498.08C250.779 498.08 251.686 498.313 252.486 498.78C253.299 499.233 253.939 499.873 254.406 500.7C254.886 501.527 255.126 502.5 255.126 503.62C255.126 504.753 254.886 505.733 254.406 506.56C253.939 507.387 253.299 508.027 252.486 508.48C251.686 508.933 250.779 509.16 249.766 509.16ZM243.406 512.88V498.24H246.386V500.44L246.326 503.64L246.526 506.82V512.88H243.406ZM249.226 506.6C249.746 506.6 250.206 506.48 250.606 506.24C251.019 506 251.346 505.66 251.586 505.22C251.839 504.767 251.966 504.233 251.966 503.62C251.966 502.993 251.839 502.46 251.586 502.02C251.346 501.58 251.019 501.24 250.606 501C250.206 500.76 249.746 500.64 249.226 500.64C248.706 500.64 248.239 500.76 247.826 501C247.412 501.24 247.086 501.58 246.846 502.02C246.606 502.46 246.486 502.993 246.486 503.62C246.486 504.233 246.606 504.767 246.846 505.22C247.086 505.66 247.412 506 247.826 506.24C248.239 506.48 248.706 506.6 249.226 506.6ZM268.393 509V498.24H271.493V509H268.393ZM262.973 501.68C264.386 501.693 265.446 502.013 266.153 502.64C266.873 503.253 267.233 504.127 267.233 505.26C267.233 506.447 266.826 507.373 266.013 508.04C265.199 508.693 264.046 509.02 262.553 509.02L257.313 509V498.24H260.413V501.68H262.973ZM262.273 506.8C262.873 506.813 263.333 506.687 263.653 506.42C263.973 506.153 264.133 505.753 264.133 505.22C264.133 504.687 263.973 504.307 263.653 504.08C263.333 503.84 262.873 503.713 262.273 503.7L260.413 503.68V506.8H262.273ZM276.8 509V500.08L277.5 500.8H273.16V498.24H283.54V500.8H279.2L279.9 500.08V509H276.8ZM291.643 509V506.9L291.443 506.44V502.68C291.443 502.013 291.236 501.493 290.823 501.12C290.423 500.747 289.803 500.56 288.963 500.56C288.39 500.56 287.823 500.653 287.263 500.84C286.716 501.013 286.25 501.253 285.863 501.56L284.743 499.38C285.33 498.967 286.036 498.647 286.863 498.42C287.69 498.193 288.53 498.08 289.383 498.08C291.023 498.08 292.296 498.467 293.203 499.24C294.11 500.013 294.563 501.22 294.563 502.86V509H291.643ZM288.363 509.16C287.523 509.16 286.803 509.02 286.203 508.74C285.603 508.447 285.143 508.053 284.823 507.56C284.503 507.067 284.343 506.513 284.343 505.9C284.343 505.26 284.496 504.7 284.803 504.22C285.123 503.74 285.623 503.367 286.303 503.1C286.983 502.82 287.87 502.68 288.963 502.68H291.823V504.5H289.303C288.57 504.5 288.063 504.62 287.783 504.86C287.516 505.1 287.383 505.4 287.383 505.76C287.383 506.16 287.536 506.48 287.843 506.72C288.163 506.947 288.596 507.06 289.143 507.06C289.663 507.06 290.13 506.94 290.543 506.7C290.956 506.447 291.256 506.08 291.443 505.6L291.923 507.04C291.696 507.733 291.283 508.26 290.683 508.62C290.083 508.98 289.31 509.16 288.363 509.16Z" fill="#323232"/>
<path d="M116.525 527.078C115.84 527.078 115.203 526.965 114.614 526.74C114.033 526.506 113.526 526.181 113.093 525.765C112.668 525.34 112.335 524.851 112.092 524.296C111.858 523.733 111.741 523.117 111.741 522.45C111.741 521.783 111.858 521.172 112.092 520.617C112.335 520.054 112.668 519.564 113.093 519.148C113.526 518.723 114.033 518.398 114.614 518.173C115.195 517.939 115.832 517.822 116.525 517.822C117.21 517.822 117.842 517.939 118.423 518.173C119.004 518.398 119.506 518.719 119.931 519.135C120.364 519.551 120.698 520.041 120.932 520.604C121.175 521.167 121.296 521.783 121.296 522.45C121.296 523.117 121.175 523.733 120.932 524.296C120.698 524.859 120.364 525.349 119.931 525.765C119.506 526.181 119.004 526.506 118.423 526.74C117.842 526.965 117.21 527.078 116.525 527.078ZM116.525 526.22C117.071 526.22 117.574 526.129 118.033 525.947C118.501 525.756 118.904 525.492 119.242 525.154C119.589 524.807 119.857 524.409 120.048 523.958C120.239 523.499 120.334 522.996 120.334 522.45C120.334 521.904 120.239 521.406 120.048 520.955C119.857 520.496 119.589 520.097 119.242 519.759C118.904 519.412 118.501 519.148 118.033 518.966C117.574 518.775 117.071 518.68 116.525 518.68C115.979 518.68 115.472 518.775 115.004 518.966C114.536 519.148 114.129 519.412 113.782 519.759C113.444 520.097 113.175 520.496 112.976 520.955C112.785 521.406 112.69 521.904 112.69 522.45C112.69 522.987 112.785 523.486 112.976 523.945C113.175 524.404 113.444 524.807 113.782 525.154C114.129 525.492 114.536 525.756 115.004 525.947C115.472 526.129 115.979 526.22 116.525 526.22ZM126.439 527.078C125.884 527.078 125.39 526.987 124.957 526.805C124.532 526.623 124.168 526.346 123.865 525.973C123.561 525.6 123.332 525.141 123.176 524.595C123.02 524.04 122.942 523.399 122.942 522.671C122.942 522.021 123.002 521.453 123.124 520.968C123.245 520.474 123.414 520.049 123.631 519.694C123.847 519.339 124.099 519.04 124.385 518.797C124.679 518.546 124.996 518.346 125.334 518.199C125.68 518.043 126.036 517.926 126.4 517.848L129.468 517.133L129.624 517.991L126.738 518.641C126.556 518.684 126.335 518.745 126.075 518.823C125.823 518.901 125.563 519.018 125.295 519.174C125.035 519.33 124.792 519.547 124.567 519.824C124.341 520.101 124.159 520.461 124.021 520.903C123.891 521.336 123.826 521.878 123.826 522.528C123.826 522.667 123.83 522.779 123.839 522.866C123.847 522.944 123.856 523.031 123.865 523.126C123.882 523.213 123.895 523.343 123.904 523.516L123.501 523.178C123.596 522.649 123.791 522.19 124.086 521.8C124.38 521.401 124.749 521.094 125.191 520.877C125.641 520.652 126.14 520.539 126.686 520.539C127.318 520.539 127.882 520.678 128.376 520.955C128.87 521.224 129.255 521.601 129.533 522.086C129.819 522.571 129.962 523.135 129.962 523.776C129.962 524.409 129.814 524.976 129.52 525.479C129.234 525.982 128.826 526.376 128.298 526.662C127.769 526.939 127.149 527.078 126.439 527.078ZM126.543 526.311C127.028 526.311 127.457 526.203 127.83 525.986C128.202 525.761 128.493 525.457 128.701 525.076C128.917 524.695 129.026 524.266 129.026 523.789C129.026 523.321 128.917 522.905 128.701 522.541C128.493 522.177 128.202 521.891 127.83 521.683C127.457 521.466 127.024 521.358 126.53 521.358C126.044 521.358 125.615 521.462 125.243 521.67C124.87 521.869 124.575 522.151 124.359 522.515C124.151 522.879 124.047 523.299 124.047 523.776C124.047 524.253 124.151 524.682 124.359 525.063C124.575 525.444 124.87 525.748 125.243 525.973C125.624 526.198 126.057 526.311 126.543 526.311ZM135.463 527.065C134.874 527.065 134.341 526.931 133.864 526.662C133.387 526.385 133.006 525.99 132.72 525.479C132.443 524.959 132.304 524.326 132.304 523.581C132.304 522.836 132.443 522.207 132.72 521.696C132.997 521.176 133.374 520.782 133.851 520.513C134.328 520.244 134.865 520.11 135.463 520.11C136.113 520.11 136.694 520.257 137.205 520.552C137.725 520.838 138.132 521.245 138.427 521.774C138.722 522.294 138.869 522.896 138.869 523.581C138.869 524.274 138.722 524.881 138.427 525.401C138.132 525.921 137.725 526.328 137.205 526.623C136.694 526.918 136.113 527.065 135.463 527.065ZM131.94 529.522V520.175H132.824V522.229L132.733 523.594L132.863 524.972V529.522H131.94ZM135.398 526.246C135.883 526.246 136.317 526.138 136.698 525.921C137.079 525.696 137.383 525.384 137.608 524.985C137.833 524.578 137.946 524.11 137.946 523.581C137.946 523.052 137.833 522.589 137.608 522.19C137.383 521.791 137.079 521.479 136.698 521.254C136.317 521.029 135.883 520.916 135.398 520.916C134.913 520.916 134.475 521.029 134.085 521.254C133.704 521.479 133.4 521.791 133.175 522.19C132.958 522.589 132.85 523.052 132.85 523.581C132.85 524.11 132.958 524.578 133.175 524.985C133.4 525.384 133.704 525.696 134.085 525.921C134.475 526.138 134.913 526.246 135.398 526.246ZM145.052 527V525.492L145.013 525.245V522.723C145.013 522.142 144.848 521.696 144.519 521.384C144.198 521.072 143.717 520.916 143.076 520.916C142.634 520.916 142.214 520.99 141.815 521.137C141.416 521.284 141.078 521.479 140.801 521.722L140.385 521.033C140.732 520.738 141.148 520.513 141.633 520.357C142.118 520.192 142.63 520.11 143.167 520.11C144.051 520.11 144.731 520.331 145.208 520.773C145.693 521.206 145.936 521.869 145.936 522.762V527H145.052ZM142.699 527.065C142.188 527.065 141.741 526.983 141.36 526.818C140.987 526.645 140.701 526.411 140.502 526.116C140.303 525.813 140.203 525.466 140.203 525.076C140.203 524.721 140.285 524.4 140.45 524.114C140.623 523.819 140.901 523.585 141.282 523.412C141.672 523.23 142.192 523.139 142.842 523.139H145.195V523.828H142.868C142.209 523.828 141.75 523.945 141.49 524.179C141.239 524.413 141.113 524.703 141.113 525.05C141.113 525.44 141.265 525.752 141.568 525.986C141.871 526.22 142.296 526.337 142.842 526.337C143.362 526.337 143.808 526.22 144.181 525.986C144.562 525.743 144.84 525.397 145.013 524.946L145.221 525.583C145.048 526.034 144.744 526.393 144.311 526.662C143.886 526.931 143.349 527.065 142.699 527.065ZM149.693 527V520.734L149.927 520.981H147.106V520.175H153.203V520.981H150.382L150.616 520.734V527H149.693ZM154.538 527V520.175H155.461V525.596L160.024 520.175H160.843V527H159.92V521.566L155.37 527H154.538ZM164.788 527V520.734L165.022 520.981H162.201V520.175H168.298V520.981H165.477L165.711 520.734V527H164.788ZM172.24 527.065C171.529 527.065 170.905 526.918 170.368 526.623C169.831 526.32 169.41 525.908 169.107 525.388C168.804 524.859 168.652 524.257 168.652 523.581C168.652 522.905 168.795 522.307 169.081 521.787C169.376 521.267 169.774 520.86 170.277 520.565C170.788 520.262 171.36 520.11 171.993 520.11C172.634 520.11 173.202 520.257 173.696 520.552C174.199 520.838 174.593 521.245 174.879 521.774C175.165 522.294 175.308 522.896 175.308 523.581C175.308 523.624 175.304 523.672 175.295 523.724C175.295 523.767 175.295 523.815 175.295 523.867H169.354V523.178H174.801L174.437 523.451C174.437 522.957 174.329 522.519 174.112 522.138C173.904 521.748 173.618 521.445 173.254 521.228C172.89 521.011 172.47 520.903 171.993 520.903C171.525 520.903 171.105 521.011 170.732 521.228C170.359 521.445 170.069 521.748 169.861 522.138C169.653 522.528 169.549 522.974 169.549 523.477V523.62C169.549 524.14 169.662 524.599 169.887 524.998C170.121 525.388 170.442 525.696 170.849 525.921C171.265 526.138 171.737 526.246 172.266 526.246C172.682 526.246 173.068 526.172 173.423 526.025C173.787 525.878 174.099 525.652 174.359 525.349L174.879 525.947C174.576 526.311 174.194 526.588 173.735 526.779C173.284 526.97 172.786 527.065 172.24 527.065ZM180.211 527.065C179.535 527.065 178.928 526.918 178.391 526.623C177.862 526.32 177.446 525.908 177.143 525.388C176.84 524.859 176.688 524.257 176.688 523.581C176.688 522.896 176.84 522.294 177.143 521.774C177.446 521.254 177.862 520.847 178.391 520.552C178.928 520.257 179.535 520.11 180.211 520.11C180.792 520.11 181.316 520.223 181.784 520.448C182.252 520.673 182.62 521.011 182.889 521.462L182.2 521.93C181.966 521.583 181.676 521.328 181.329 521.163C180.982 520.998 180.605 520.916 180.198 520.916C179.713 520.916 179.275 521.029 178.885 521.254C178.495 521.471 178.187 521.778 177.962 522.177C177.737 522.576 177.624 523.044 177.624 523.581C177.624 524.118 177.737 524.586 177.962 524.985C178.187 525.384 178.495 525.696 178.885 525.921C179.275 526.138 179.713 526.246 180.198 526.246C180.605 526.246 180.982 526.164 181.329 525.999C181.676 525.834 181.966 525.583 182.2 525.245L182.889 525.713C182.62 526.155 182.252 526.493 181.784 526.727C181.316 526.952 180.792 527.065 180.211 527.065ZM187.614 522.58C188.472 522.589 189.122 522.779 189.564 523.152C190.015 523.525 190.24 524.062 190.24 524.764C190.24 525.492 189.998 526.051 189.512 526.441C189.036 526.831 188.342 527.022 187.432 527.013L184.676 527V520.175H185.599V522.554L187.614 522.58ZM187.38 526.311C188.013 526.32 188.49 526.194 188.81 525.934C189.14 525.665 189.304 525.275 189.304 524.764C189.304 524.253 189.144 523.88 188.823 523.646C188.503 523.403 188.022 523.278 187.38 523.269L185.599 523.243V526.285L187.38 526.311ZM200.409 527L197.601 523.62L198.368 523.165L201.501 527H200.409ZM195.404 527V520.175H196.327V527H195.404ZM196.041 523.958V523.165H198.238V523.958H196.041ZM198.446 523.685L197.588 523.555L200.305 520.175H201.306L198.446 523.685ZM206.36 527V520.175H207.296L210.39 525.414H210L213.146 520.175H214.004V527H213.159V521.228L213.328 521.306L210.39 526.168H209.974L207.01 521.254L207.205 521.215V527H206.36ZM219.555 527.065C218.845 527.065 218.221 526.918 217.683 526.623C217.146 526.32 216.726 525.908 216.422 525.388C216.119 524.859 215.967 524.257 215.967 523.581C215.967 522.905 216.11 522.307 216.396 521.787C216.691 521.267 217.09 520.86 217.592 520.565C218.104 520.262 218.676 520.11 219.308 520.11C219.95 520.11 220.517 520.257 221.011 520.552C221.514 520.838 221.908 521.245 222.194 521.774C222.48 522.294 222.623 522.896 222.623 523.581C222.623 523.624 222.619 523.672 222.61 523.724C222.61 523.767 222.61 523.815 222.61 523.867H216.669V523.178H222.116L221.752 523.451C221.752 522.957 221.644 522.519 221.427 522.138C221.219 521.748 220.933 521.445 220.569 521.228C220.205 521.011 219.785 520.903 219.308 520.903C218.84 520.903 218.42 521.011 218.047 521.228C217.675 521.445 217.384 521.748 217.176 522.138C216.968 522.528 216.864 522.974 216.864 523.477V523.62C216.864 524.14 216.977 524.599 217.202 524.998C217.436 525.388 217.757 525.696 218.164 525.921C218.58 526.138 219.053 526.246 219.581 526.246C219.997 526.246 220.383 526.172 220.738 526.025C221.102 525.878 221.414 525.652 221.674 525.349L222.194 525.947C221.891 526.311 221.51 526.588 221.05 526.779C220.6 526.97 220.101 527.065 219.555 527.065ZM224.667 527V520.175H225.59V523.191H229.893V520.175H230.816V527H229.893V523.984H225.59V527H224.667ZM236.364 527.065C235.653 527.065 235.029 526.918 234.492 526.623C233.955 526.32 233.534 525.908 233.231 525.388C232.928 524.859 232.776 524.257 232.776 523.581C232.776 522.905 232.919 522.307 233.205 521.787C233.5 521.267 233.898 520.86 234.401 520.565C234.912 520.262 235.484 520.11 236.117 520.11C236.758 520.11 237.326 520.257 237.82 520.552C238.323 520.838 238.717 521.245 239.003 521.774C239.289 522.294 239.432 522.896 239.432 523.581C239.432 523.624 239.428 523.672 239.419 523.724C239.419 523.767 239.419 523.815 239.419 523.867H233.478V523.178H238.925L238.561 523.451C238.561 522.957 238.453 522.519 238.236 522.138C238.028 521.748 237.742 521.445 237.378 521.228C237.014 521.011 236.594 520.903 236.117 520.903C235.649 520.903 235.229 521.011 234.856 521.228C234.483 521.445 234.193 521.748 233.985 522.138C233.777 522.528 233.673 522.974 233.673 523.477V523.62C233.673 524.14 233.786 524.599 234.011 524.998C234.245 525.388 234.566 525.696 234.973 525.921C235.389 526.138 235.861 526.246 236.39 526.246C236.806 526.246 237.192 526.172 237.547 526.025C237.911 525.878 238.223 525.652 238.483 525.349L239.003 525.947C238.7 526.311 238.318 526.588 237.859 526.779C237.408 526.97 236.91 527.065 236.364 527.065ZM246.015 526.558V520.981H242.726L242.648 522.502C242.631 522.961 242.601 523.412 242.557 523.854C242.523 524.296 242.458 524.703 242.362 525.076C242.276 525.44 242.15 525.739 241.985 525.973C241.821 526.198 241.608 526.328 241.348 526.363L240.425 526.194C240.694 526.203 240.915 526.107 241.088 525.908C241.262 525.7 241.396 525.418 241.491 525.063C241.587 524.708 241.656 524.305 241.699 523.854C241.743 523.395 241.777 522.927 241.803 522.45L241.894 520.175H246.938V526.558H246.015ZM240.139 528.651V526.194H248.004V528.651H247.133V527H241.01V528.651H240.139ZM257.902 527L255.562 523.62L256.329 523.165L259.007 527H257.902ZM254.028 523.958V523.165H256.186V523.958H254.028ZM256.42 523.685L255.536 523.555L257.811 520.175H258.812L256.42 523.685ZM249.816 527H248.711L251.389 523.165L252.143 523.62L249.816 527ZM254.314 527H253.391V520.175H254.314V527ZM253.677 523.958H251.532V523.165H253.677V523.958ZM251.311 523.685L248.906 520.175H249.907L252.169 523.555L251.311 523.685ZM263.227 527.065C262.517 527.065 261.893 526.918 261.355 526.623C260.818 526.32 260.398 525.908 260.094 525.388C259.791 524.859 259.639 524.257 259.639 523.581C259.639 522.905 259.782 522.307 260.068 521.787C260.363 521.267 260.762 520.86 261.264 520.565C261.776 520.262 262.348 520.11 262.98 520.11C263.622 520.11 264.189 520.257 264.683 520.552C265.186 520.838 265.58 521.245 265.866 521.774C266.152 522.294 266.295 522.896 266.295 523.581C266.295 523.624 266.291 523.672 266.282 523.724C266.282 523.767 266.282 523.815 266.282 523.867H260.341V523.178H265.788L265.424 523.451C265.424 522.957 265.316 522.519 265.099 522.138C264.891 521.748 264.605 521.445 264.241 521.228C263.877 521.011 263.457 520.903 262.98 520.903C262.512 520.903 262.092 521.011 261.719 521.228C261.347 521.445 261.056 521.748 260.848 522.138C260.64 522.528 260.536 522.974 260.536 523.477V523.62C260.536 524.14 260.649 524.599 260.874 524.998C261.108 525.388 261.429 525.696 261.836 525.921C262.252 526.138 262.725 526.246 263.253 526.246C263.669 526.246 264.055 526.172 264.41 526.025C264.774 525.878 265.086 525.652 265.346 525.349L265.866 525.947C265.563 526.311 265.182 526.588 264.722 526.779C264.272 526.97 263.773 527.065 263.227 527.065ZM271.861 527.065C271.272 527.065 270.739 526.931 270.262 526.662C269.786 526.385 269.404 525.99 269.118 525.479C268.841 524.959 268.702 524.326 268.702 523.581C268.702 522.836 268.841 522.207 269.118 521.696C269.396 521.176 269.773 520.782 270.249 520.513C270.726 520.244 271.263 520.11 271.861 520.11C272.511 520.11 273.092 520.257 273.603 520.552C274.123 520.838 274.531 521.245 274.825 521.774C275.12 522.294 275.267 522.896 275.267 523.581C275.267 524.274 275.12 524.881 274.825 525.401C274.531 525.921 274.123 526.328 273.603 526.623C273.092 526.918 272.511 527.065 271.861 527.065ZM268.338 529.522V520.175H269.222V522.229L269.131 523.594L269.261 524.972V529.522H268.338ZM271.796 526.246C272.282 526.246 272.715 526.138 273.096 525.921C273.478 525.696 273.781 525.384 274.006 524.985C274.232 524.578 274.344 524.11 274.344 523.581C274.344 523.052 274.232 522.589 274.006 522.19C273.781 521.791 273.478 521.479 273.096 521.254C272.715 521.029 272.282 520.916 271.796 520.916C271.311 520.916 270.873 521.029 270.483 521.254C270.102 521.479 269.799 521.791 269.573 522.19C269.357 522.589 269.248 523.052 269.248 523.581C269.248 524.11 269.357 524.578 269.573 524.985C269.799 525.384 270.102 525.696 270.483 525.921C270.873 526.138 271.311 526.246 271.796 526.246ZM277.177 529.587C276.856 529.587 276.549 529.535 276.254 529.431C275.968 529.327 275.721 529.171 275.513 528.963L275.942 528.274C276.115 528.439 276.302 528.564 276.501 528.651C276.709 528.746 276.939 528.794 277.19 528.794C277.493 528.794 277.753 528.707 277.97 528.534C278.195 528.369 278.408 528.075 278.607 527.65L279.049 526.649L279.153 526.506L281.961 520.175H282.871L279.452 527.819C279.261 528.261 279.049 528.612 278.815 528.872C278.59 529.132 278.343 529.314 278.074 529.418C277.805 529.531 277.506 529.587 277.177 529.587ZM278.997 527.195L275.851 520.175H276.813L279.595 526.441L278.997 527.195Z" fill="#323232"/>
<rect x="149" y="543" width="100" height="25" rx="12.5" fill="#F99026"/>
<path d="M169.486 561.156C168.767 561.156 168.099 561.039 167.484 560.805C166.877 560.571 166.349 560.242 165.898 559.817C165.456 559.392 165.109 558.894 164.858 558.322C164.615 557.75 164.494 557.126 164.494 556.45C164.494 555.774 164.615 555.15 164.858 554.578C165.109 554.006 165.46 553.508 165.911 553.083C166.362 552.658 166.89 552.329 167.497 552.095C168.104 551.861 168.762 551.744 169.473 551.744C170.192 551.744 170.851 551.861 171.449 552.095C172.056 552.329 172.58 552.658 173.022 553.083C173.473 553.508 173.824 554.006 174.075 554.578C174.326 555.141 174.452 555.765 174.452 556.45C174.452 557.126 174.326 557.754 174.075 558.335C173.824 558.907 173.473 559.405 173.022 559.83C172.58 560.246 172.056 560.571 171.449 560.805C170.851 561.039 170.197 561.156 169.486 561.156ZM169.473 559.362C169.88 559.362 170.253 559.293 170.591 559.154C170.938 559.015 171.241 558.816 171.501 558.556C171.761 558.296 171.96 557.988 172.099 557.633C172.246 557.278 172.32 556.883 172.32 556.45C172.32 556.017 172.246 555.622 172.099 555.267C171.96 554.912 171.761 554.604 171.501 554.344C171.25 554.084 170.951 553.885 170.604 553.746C170.257 553.607 169.88 553.538 169.473 553.538C169.066 553.538 168.689 553.607 168.342 553.746C168.004 553.885 167.705 554.084 167.445 554.344C167.185 554.604 166.981 554.912 166.834 555.267C166.695 555.622 166.626 556.017 166.626 556.45C166.626 556.875 166.695 557.269 166.834 557.633C166.981 557.988 167.181 558.296 167.432 558.556C167.692 558.816 167.995 559.015 168.342 559.154C168.689 559.293 169.066 559.362 169.473 559.362ZM179.389 561.156C178.817 561.156 178.297 561.074 177.829 560.909C177.361 560.736 176.954 560.471 176.607 560.116C176.269 559.752 176.005 559.288 175.814 558.725C175.632 558.162 175.541 557.49 175.541 556.71C175.541 556.155 175.589 555.648 175.684 555.189C175.78 554.73 175.923 554.314 176.113 553.941C176.304 553.56 176.547 553.226 176.841 552.94C177.145 552.645 177.496 552.403 177.894 552.212C178.302 552.013 178.761 551.861 179.272 551.757L182.6 551.094L182.873 552.836L179.935 553.421C179.762 553.456 179.563 553.503 179.337 553.564C179.121 553.616 178.9 553.698 178.674 553.811C178.458 553.924 178.254 554.084 178.063 554.292C177.881 554.491 177.734 554.756 177.621 555.085C177.509 555.406 177.452 555.804 177.452 556.281C177.452 556.428 177.457 556.541 177.465 556.619C177.483 556.697 177.496 556.779 177.504 556.866C177.522 556.953 177.53 557.087 177.53 557.269L176.88 556.632C177.071 556.225 177.314 555.878 177.608 555.592C177.912 555.306 178.258 555.089 178.648 554.942C179.047 554.786 179.489 554.708 179.974 554.708C180.633 554.708 181.209 554.842 181.703 555.111C182.206 555.371 182.596 555.739 182.873 556.216C183.151 556.693 183.289 557.234 183.289 557.841C183.289 558.5 183.125 559.08 182.795 559.583C182.466 560.077 182.007 560.463 181.417 560.74C180.837 561.017 180.161 561.156 179.389 561.156ZM179.493 559.583C179.831 559.583 180.13 559.509 180.39 559.362C180.65 559.206 180.85 559.002 180.988 558.751C181.136 558.491 181.209 558.201 181.209 557.88C181.209 557.568 181.136 557.291 180.988 557.048C180.85 556.805 180.65 556.615 180.39 556.476C180.13 556.337 179.827 556.268 179.48 556.268C179.142 556.268 178.839 556.337 178.57 556.476C178.302 556.606 178.094 556.788 177.946 557.022C177.799 557.256 177.725 557.529 177.725 557.841C177.725 558.162 177.799 558.456 177.946 558.725C178.102 558.985 178.31 559.193 178.57 559.349C178.839 559.505 179.147 559.583 179.493 559.583ZM184.665 561V554.006H186.68V556.736H189.722V554.006H191.75V561H189.722V558.387H186.68V561H184.665ZM196.968 561.104C196.222 561.104 195.559 560.948 194.979 560.636C194.407 560.324 193.952 559.899 193.614 559.362C193.284 558.816 193.12 558.196 193.12 557.503C193.12 556.801 193.284 556.181 193.614 555.644C193.952 555.098 194.407 554.673 194.979 554.37C195.559 554.058 196.222 553.902 196.968 553.902C197.704 553.902 198.363 554.058 198.944 554.37C199.524 554.673 199.979 555.094 200.309 555.631C200.638 556.168 200.803 556.792 200.803 557.503C200.803 558.196 200.638 558.816 200.309 559.362C199.979 559.899 199.524 560.324 198.944 560.636C198.363 560.948 197.704 561.104 196.968 561.104ZM196.968 559.44C197.306 559.44 197.609 559.362 197.878 559.206C198.146 559.05 198.359 558.829 198.515 558.543C198.671 558.248 198.749 557.902 198.749 557.503C198.749 557.096 198.671 556.749 198.515 556.463C198.359 556.177 198.146 555.956 197.878 555.8C197.609 555.644 197.306 555.566 196.968 555.566C196.63 555.566 196.326 555.644 196.058 555.8C195.789 555.956 195.572 556.177 195.408 556.463C195.252 556.749 195.174 557.096 195.174 557.503C195.174 557.902 195.252 558.248 195.408 558.543C195.572 558.829 195.789 559.05 196.058 559.206C196.326 559.362 196.63 559.44 196.968 559.44ZM202.198 561V554.006H205.773C206.648 554.006 207.333 554.166 207.827 554.487C208.321 554.799 208.568 555.241 208.568 555.813C208.568 556.385 208.334 556.836 207.866 557.165C207.406 557.486 206.795 557.646 206.033 557.646L206.241 557.178C207.09 557.178 207.723 557.334 208.139 557.646C208.563 557.958 208.776 558.413 208.776 559.011C208.776 559.626 208.542 560.112 208.074 560.467C207.606 560.822 206.891 561 205.929 561H202.198ZM204.057 559.622H205.76C206.132 559.622 206.41 559.561 206.592 559.44C206.782 559.31 206.878 559.115 206.878 558.855C206.878 558.586 206.791 558.391 206.618 558.27C206.444 558.14 206.171 558.075 205.799 558.075H204.057V559.622ZM204.057 556.879H205.591C205.946 556.879 206.21 556.814 206.384 556.684C206.566 556.554 206.657 556.368 206.657 556.125C206.657 555.874 206.566 555.687 206.384 555.566C206.21 555.445 205.946 555.384 205.591 555.384H204.057V556.879ZM210.285 561V554.006H212.3V558.166L215.706 554.006H217.565V561H215.55V556.84L212.157 561H210.285ZM221.009 561V555.202L221.464 555.67H218.643V554.006H225.39V555.67H222.569L223.024 555.202V561H221.009ZM230.254 556.242C231.173 556.251 231.87 556.459 232.347 556.866C232.832 557.265 233.075 557.832 233.075 558.569C233.075 559.34 232.802 559.943 232.256 560.376C231.71 560.801 230.952 561.013 229.981 561.013L226.471 561V554.006H228.486V556.242H230.254ZM229.799 559.57C230.189 559.579 230.488 559.496 230.696 559.323C230.904 559.15 231.008 558.89 231.008 558.543C231.008 558.196 230.904 557.949 230.696 557.802C230.488 557.646 230.189 557.564 229.799 557.555L228.486 557.542V559.57H229.799Z" fill="white"/>
</svg>
